<svg xmlns="http://www.w3.org/2000/svg" width="1600" height="791" viewBox="0 0 1600 791" fill="none">
<path opacity="0.3" d="M424 -17.3812C428.95 -20.2393 435.05 -20.2393 440 -17.3812L566.894 55.8812C571.845 58.7393 574.894 64.0214 574.894 69.7376V216.262C574.894 221.979 571.845 227.261 566.894 230.119L440 303.381C435.05 306.239 428.95 306.239 424 303.381L297.106 230.119C292.155 227.261 289.106 221.979 289.106 216.262V69.7376C289.106 64.0214 292.155 58.7393 297.106 55.8812L424 -17.3812Z" fill="url(#paint0_linear_1_605)"/>
<path opacity="0.5" d="M67 24.8564C81.8513 16.282 100.149 16.282 115 24.8564L338.932 154.144C353.783 162.718 362.932 178.564 362.932 195.713V454.287C362.932 471.436 353.783 487.282 338.932 495.856L115 625.144C100.149 633.718 81.8513 633.718 67 625.144L-156.932 495.856C-171.783 487.282 -180.932 471.436 -180.932 454.287V195.713C-180.932 178.564 -171.783 162.718 -156.932 154.144L67 24.8564Z" fill="url(#paint1_linear_1_605)"/>
<path opacity="0.4" d="M1272.8 -29.1C1277.85 -32.118 1284.15 -32.118 1289.2 -29.0999L1398.78 36.3439C1403.61 39.2317 1406.57 44.4487 1406.57 50.0804V181.92C1406.57 187.551 1403.61 192.768 1398.78 195.656L1289.2 261.1C1284.15 264.118 1277.85 264.118 1272.8 261.1L1163.22 195.656C1158.39 192.768 1155.43 187.551 1155.43 181.92V50.0804C1155.43 44.4487 1158.39 39.2317 1163.22 36.3439L1272.8 -29.1Z" fill="url(#paint2_linear_1_605)"/>
<path opacity="0.7" d="M602.5 84.2376C612.401 78.5214 624.599 78.5214 634.5 84.2376L757.086 155.012C766.986 160.729 773.086 171.293 773.086 182.725V324.275C773.086 335.707 766.986 346.271 757.086 351.988L634.5 422.762C624.599 428.479 612.401 428.479 602.5 422.762L479.914 351.988C470.014 346.271 463.914 335.707 463.914 324.275V182.725C463.914 171.293 470.014 160.729 479.914 155.012L602.5 84.2376Z" fill="url(#paint3_linear_1_605)"/>
<path opacity="0.8" d="M1009.5 30.6188C1014.45 27.7607 1020.55 27.7607 1025.5 30.6188L1087.88 66.6312C1092.83 69.4893 1095.88 74.7714 1095.88 80.4876V152.512C1095.88 158.229 1092.83 163.511 1087.88 166.369L1025.5 202.381C1020.55 205.239 1014.45 205.239 1009.5 202.381L947.125 166.369C942.174 163.511 939.125 158.229 939.125 152.512V80.4876C939.125 74.7714 942.174 69.4893 947.125 66.6312L1009.5 30.6188Z" fill="url(#paint4_linear_1_605)"/>
<path opacity="0.8" d="M1438.5 409.928C1445.93 405.641 1455.07 405.641 1462.5 409.928L1516.88 441.322C1524.3 445.609 1528.88 453.532 1528.88 462.106V524.894C1528.88 533.468 1524.3 541.391 1516.88 545.678L1462.5 577.072C1455.07 581.359 1445.93 581.359 1438.5 577.072L1384.12 545.678C1376.7 541.391 1372.12 533.468 1372.12 524.894V462.106C1372.12 453.532 1376.7 445.609 1384.12 441.322L1438.5 409.928Z" fill="url(#paint5_linear_1_605)"/>
<path opacity="0.7" d="M1478.5 44.2376C1488.4 38.5214 1500.6 38.5214 1510.5 44.2376L1633.09 115.012C1642.99 120.729 1649.09 131.293 1649.09 142.725V284.275C1649.09 295.707 1642.99 306.271 1633.09 311.988L1510.5 382.762C1500.6 388.479 1488.4 388.479 1478.5 382.762L1355.91 311.988C1346.01 306.271 1339.91 295.707 1339.91 284.275V142.725C1339.91 131.293 1346.01 120.729 1355.91 115.012L1478.5 44.2376Z" fill="url(#paint6_linear_1_605)"/>
<defs>
<linearGradient id="paint0_linear_1_605" x1="432" y1="-22" x2="432" y2="308" gradientUnits="userSpaceOnUse">
<stop stop-color="white"/>
<stop offset="1" stop-color="#EFF2F5"/>
</linearGradient>
<linearGradient id="paint1_linear_1_605" x1="91" y1="11" x2="91" y2="639" gradientUnits="userSpaceOnUse">
<stop stop-color="white"/>
<stop offset="1" stop-color="#EFF2F5"/>
</linearGradient>
<linearGradient id="paint2_linear_1_605" x1="1281" y1="-34" x2="1281" y2="266" gradientUnits="userSpaceOnUse">
<stop stop-color="white"/>
<stop offset="1" stop-color="#EFF2F5"/>
</linearGradient>
<linearGradient id="paint3_linear_1_605" x1="618.5" y1="75" x2="618.5" y2="432" gradientUnits="userSpaceOnUse">
<stop stop-color="white"/>
<stop offset="1" stop-color="#EFF2F5"/>
</linearGradient>
<linearGradient id="paint4_linear_1_605" x1="1017.5" y1="26" x2="1017.5" y2="207" gradientUnits="userSpaceOnUse">
<stop stop-color="white"/>
<stop offset="1" stop-color="#EFF2F5"/>
</linearGradient>
<linearGradient id="paint5_linear_1_605" x1="1450.5" y1="403" x2="1450.5" y2="584" gradientUnits="userSpaceOnUse">
<stop stop-color="white"/>
<stop offset="1" stop-color="#EFF2F5"/>
</linearGradient>
<linearGradient id="paint6_linear_1_605" x1="1494.5" y1="35" x2="1494.5" y2="392" gradientUnits="userSpaceOnUse">
<stop stop-color="white"/>
<stop offset="1" stop-color="#EFF2F5"/>
</linearGradient>
</defs>
</svg>
