<svg xmlns="http://www.w3.org/2000/svg" width="12" height="12" viewBox="0 0 12 12" fill="none">
    <path d="M10.2929 1.29298L3.99992 7.58598L1.70692 5.29298C1.51832 5.11082 1.26571 5.01003 1.00352 5.01231C0.741321 5.01458 0.490508 5.11975 0.3051 5.30516C0.119692 5.49057 0.0145233 5.74138 0.0122448 6.00358C0.00996641 6.26578 0.110761 6.51838 0.292919 6.70698L3.29292 9.70698C3.48045 9.89445 3.73475 9.99977 3.99992 9.99977C4.26508 9.99977 4.51939 9.89445 4.70692 9.70698L11.7069 2.70698C11.8891 2.51838 11.9899 2.26578 11.9876 2.00358C11.9853 1.74138 11.8801 1.49057 11.6947 1.30516C11.5093 1.11975 11.2585 1.01458 10.9963 1.01231C10.7341 1.01003 10.4815 1.11082 10.2929 1.29298Z" fill="#2437DB"/>
</svg>
